<?xml version="1.0" encoding="utf-8"?>
<!-- Svg Vector Icons : http://www.onlinewebfonts.com/icon -->
<!DOCTYPE svg PUBLIC "-//W3C//DTD SVG 1.1//EN" "http://www.w3.org/Graphics/SVG/1.1/DTD/svg11.dtd">
<svg version="1.1" xmlns="http://www.w3.org/2000/svg" xmlns:xlink="http://www.w3.org/1999/xlink" x="0px" y="0px" viewBox="0 0 1000 1000" enable-background="new 0 0 1000 1000" xml:space="preserve">
<metadata> Svg Vector Icons : http://www.onlinewebfonts.com/icon </metadata>
<g><path d="M839.8,10H163.1c-94.8,0-94.8,93.3-94.8,93.3v793.3c0,0,0,93.3,96.3,93.3c0,0,535.2,0,560,0l207.1-163.3V103.3C931.7,103.3,930.2,10,839.8,10z M885,803.3l-186.7,140c-23.3,0-513.3,0-513.3,0c-70,0-70-70-70-70V126.7c0,0,0-70,70-70c46.7,0,630,0,630,0c70,0,70,70,70,70V803.3z"/><path d="M231.7,523.3h536.7V570H231.7V523.3z"/><path d="M231.7,336.7h536.7v46.7H231.7V336.7z"/><path d="M231.7,150h256.7v46.7H231.7V150z"/><path d="M838.3,686.7H675h-46.7v46.7v163.3H675V733.3h163.3V686.7z"/></g>
</svg>