<?xml version="1.0" encoding="utf-8"?>
<!-- Svg Vector Icons : http://www.onlinewebfonts.com/icon -->
<!DOCTYPE svg PUBLIC "-//W3C//DTD SVG 1.1//EN" "http://www.w3.org/Graphics/SVG/1.1/DTD/svg11.dtd">
<svg version="1.1" xmlns="http://www.w3.org/2000/svg" xmlns:xlink="http://www.w3.org/1999/xlink" x="0px" y="0px" viewBox="0 0 1000 1000" enable-background="new 0 0 1000 1000" xml:space="preserve">
<metadata> Svg Vector Icons : http://www.onlinewebfonts.com/icon </metadata>
<g><g><path d="M842,891.3v-537H158v537H842z M695.1,10h98.7v98.7H842c26,0,49,9.9,68.9,29.8c19.9,19.9,29.8,42.8,29.8,68.9v683.9c0,26-9.9,49-29.8,68.9C890.9,980.1,868,990,842,990H158c-27.5,0-50.9-9.9-70-29.8c-19.1-19.9-28.7-42.8-28.7-68.9V207.4c0-26,9.6-49,28.7-68.9c19.1-19.9,42.5-29.8,70-29.8h48.2V10h98.7v98.7h390.2V10z M745.6,549.3v245.6H500V549.3H745.6z"/></g></g>
</svg>