<?xml version="1.0" encoding="utf-8"?>
<!-- Svg Vector Icons : http://www.onlinewebfonts.com/icon -->
<!DOCTYPE svg PUBLIC "-//W3C//DTD SVG 1.1//EN" "http://www.w3.org/Graphics/SVG/1.1/DTD/svg11.dtd">
<svg version="1.1" xmlns="http://www.w3.org/2000/svg" xmlns:xlink="http://www.w3.org/1999/xlink" x="0px" y="0px" viewBox="0 0 1000 1000" enable-background="new 0 0 1000 1000" xml:space="preserve">
<metadata> Svg Vector Icons : http://www.onlinewebfonts.com/icon </metadata>
<g><g><g><g><path d="M807.3,80.6c33.4,50.5,37.2,125.5,11.2,223.4c64.5,22.1,146.8,84.3,166.3,255.5c16.8,147.5-7.2,258.8-71.5,330.8c-51.9,58.1-124.9,87.6-217.2,87.6c-154.8,0-323.5-86.8-355.7-104.2c-31.2-16.9-50.6-49.4-50.6-84.9V377.4c0-46.9,33.5-86.8,79.7-95c13.9-2.4,136.7-26.4,163.2-110.1C561.6,81,627.5,22.1,700.6,22.1C743.8,22.1,782.6,43.4,807.3,80.6z M396.3,782.7c32.8,17.2,176.7,88.6,299.8,88.6c61.4,0,106.5-17,137.7-52c43.2-48.4,58.3-131.7,45.1-247.8c-12.7-111-58.6-172.4-129.3-172.8l-74.6-0.4l24.7-70.4c31.1-88.8,38.1-159.2,18.8-188.4c-3.3-4.9-9-10.8-17.9-10.8c-20.5,0-50.8,26.6-66.4,75.8C592.6,335.7,443,376.2,396.3,385.7L396.3,782.7L396.3,782.7z"/></g><g><path d="M218.6,865.9V326.2c0-11.7-9.4-21.1-21.1-21.1H31.1c-11.6,0-21.1,9.4-21.1,21.1v539.8c0,11.7,9.4,21.1,21.1,21.1h166.4C209.1,887,218.6,877.6,218.6,865.9z M155.2,803.9c0,22.5-18.3,40.9-40.9,40.9c-22.5,0-40.9-18.3-40.9-40.9c0-22.5,18.3-40.9,40.9-40.9C136.8,763,155.2,781.4,155.2,803.9z"/></g></g></g><g></g><g></g><g></g><g></g><g></g><g></g><g></g><g></g><g></g><g></g><g></g><g></g><g></g><g></g><g></g></g>
</svg>