<?xml version="1.0" encoding="utf-8"?>
<!-- Svg Vector Icons : http://www.onlinewebfonts.com/icon -->
<!DOCTYPE svg PUBLIC "-//W3C//DTD SVG 1.1//EN" "http://www.w3.org/Graphics/SVG/1.1/DTD/svg11.dtd">
<svg version="1.1" xmlns="http://www.w3.org/2000/svg" xmlns:xlink="http://www.w3.org/1999/xlink" x="0px" y="0px" viewBox="0 0 1000 1000" enable-background="new 0 0 1000 1000" xml:space="preserve">
<metadata> Svg Vector Icons : http://www.onlinewebfonts.com/icon </metadata>
<g><path d="M251.8,382.6c46.2,0,83.6-37.4,83.6-83.6c0-46.2-37.4-83.6-83.6-83.6c-46.2,0-83.6,37.4-83.6,83.6C168.1,345.2,205.6,382.6,251.8,382.6z"/><path d="M503.5,488.3l-64.3-68.7L272.4,615l-68.4-62.5l-99.5,127.1h693.6V552.5l-163-234.9L503.5,488.3z"/><path d="M896.9,679.2V224.7c0-56.6-42.5-102.7-94.8-102.7H104.8C52.5,122,10,168.1,10,224.7v454.5c0,56.6,42.5,102.7,94.8,102.7H802C854.3,781.9,896.9,735.8,896.9,679.2z M58.7,679.2V224.7c0-29.8,20.7-54,46.2-54H802c25.5,0,46.2,24.2,46.2,54v454.5c0,29.8-20.7,54-46.2,54H104.8C79.4,733.2,58.7,709,58.7,679.2z"/><path d="M932.7,226.6l0.1,63c6.6,9.3,8.5,18.2,8.5,31.2v454.5c0,29.8-20.7,54-46.2,54H198c-15.1,0-22.1-2.1-31.9-15c-13,0.3-42.6,0-55.8,0c12,43.2,46,63.6,87.7,63.6h697.2c52.3,0,94.8-46.1,94.8-102.7V320.8C990,277.8,967.4,241.9,932.7,226.6z"/></g>
</svg>