<?xml version="1.0" encoding="utf-8"?>
<!-- Svg Vector Icons : http://www.onlinewebfonts.com/icon -->
<!DOCTYPE svg PUBLIC "-//W3C//DTD SVG 1.1//EN" "http://www.w3.org/Graphics/SVG/1.1/DTD/svg11.dtd">
<svg version="1.1" xmlns="http://www.w3.org/2000/svg" xmlns:xlink="http://www.w3.org/1999/xlink" x="0px" y="0px" viewBox="0 0 1000 1000" enable-background="new 0 0 1000 1000" xml:space="preserve">
<metadata> Svg Vector Icons : http://www.onlinewebfonts.com/icon </metadata>
<g><path d="M500,990C229.4,990,10,770.6,10,500C10,229.4,229.4,10,500,10c270.6,0,490,219.4,490,490C990,770.6,770.6,990,500,990z M500,89.5C273.2,89.5,89.5,273.3,89.5,500c0,226.8,183.8,410.5,410.5,410.5S910.5,726.8,910.5,500C910.5,273.3,726.8,89.5,500,89.5z M700.2,545.2l-257.6,170c-17.8,11.7-39.2,12.9-58.2,3.2c-19-9.7-30.1-27.5-30.1-48.4V330c0-20.9,11.1-38.6,30.1-48.4c19-9.8,40.4-8.6,58.2,3.2l257.6,170c16,10.5,24.7,26.5,24.7,45.2C724.9,518.7,716.2,534.7,700.2,545.2z"/></g>
</svg>