<?xml version="1.0" encoding="utf-8"?>
<!-- Svg Vector Icons : http://www.onlinewebfonts.com/icon -->
<!DOCTYPE svg PUBLIC "-//W3C//DTD SVG 1.1//EN" "http://www.w3.org/Graphics/SVG/1.1/DTD/svg11.dtd">
<svg version="1.1" xmlns="http://www.w3.org/2000/svg" xmlns:xlink="http://www.w3.org/1999/xlink" x="0px" y="0px" viewBox="0 0 1000 1000" enable-background="new 0 0 1000 1000" xml:space="preserve">
<metadata> Svg Vector Icons : http://www.onlinewebfonts.com/icon </metadata>
<g><path d="M300.9,400.5c0,21.1,17.1,38.3,38.3,38.3c21.1,0,38.3-17.1,38.3-38.3c0-21.1-17.1-38.3-38.3-38.3C318.1,362.2,300.9,379.3,300.9,400.5L300.9,400.5z"/><path d="M461.7,400.5c0,21.1,17.1,38.3,38.3,38.3s38.3-17.1,38.3-38.3c0-21.1-17.1-38.3-38.3-38.3S461.7,379.3,461.7,400.5z"/><path d="M622.5,400.5c0,21.1,17.1,38.3,38.3,38.3c21.1,0,38.3-17.1,38.3-38.3c0-21.1-17.1-38.3-38.3-38.3C639.6,362.2,622.5,379.3,622.5,400.5z"/><path d="M928.8,78.9H71.2c-33.8,0-61.2,27.4-61.2,61.2v528.3c0,33.8,27.4,61.3,61.2,61.3h61.2v191.4l191.4-191.4h604.8c33.8,0,61.3-27.4,61.3-61.3V140.2C990,106.3,962.6,78.9,928.8,78.9z M951.7,676.1c0,8.5-6.9,15.3-15.3,15.3c0,0-366.7,0-624.7,0l-40.4,38.3h-1l-99.5,91.9v-91.9v-38.3h-37.2h-1.1c-42.9,0-68.9,0-68.9,0c-8.5,0-15.3-6.9-15.3-15.3V132.5c0-8.5,6.9-15.3,15.3-15.3h872.8c8.5,0,15.3,6.9,15.3,15.3V676.1L951.7,676.1z"/></g>
</svg>